<?xml version="1.0" encoding="utf-8"?>
<!-- Generator: Adobe Illustrator 24.0.0, SVG Export Plug-In . SVG Version: 6.00 Build 0)  -->
<svg version="1.1" id="Layer_1" xmlns="http://www.w3.org/2000/svg" xmlns:xlink="http://www.w3.org/1999/xlink" x="0px" y="0px"
	 viewBox="0 0 1212.95 408.27" style="enable-background:new 0 0 1212.95 408.27;" xml:space="preserve">
<style type="text/css">
	.st0{fill:#FEFEFE;}
	.st1{fill:#D10F3B;}
	.st2{fill:#F0F0F0;}
	.st3{fill:#C1C1C1;}
	.st4{fill:#0795A0;}
	.st5{fill:#C23C8E;}
	.st6{fill:#23AFE6;}
	.st7{fill:#593A8E;}
	.st8{fill:#889AA4;}
	.st9{fill:#F18914;}
	.st10{fill:#C9D425;}
	.st11{fill:#C3C3C3;}
	.st12{fill:#FCFCFC;}
	.st13{fill:#FDFDFD;}
</style>
<g>
	<g>
		<path class="st0" d="M1198.81,169.43c0,31.21,0,62.42,0,93.63c-1.41,1.03-2.98,1.58-4.72,1.67c-3.54,0.28-7.07-0.07-10.59-0.27
			c-9.68-0.54-13.75,4.1-13.76,13.48c-0.01,13.05,0.16,26.09-0.17,39.14c-0.21,8.59-1.72,17.01-4.22,25.18
			c-4.26,13.91-13.25,19.73-27.31,18.27c-12.17-1.27-18.35-8.01-19.22-22.84c-1.12-19.04-0.33-38.13-0.39-57.19
			c-0.03-8.72-0.72-16.19-12.59-15.97c-11.88,0.22-12.21,8-12.19,16.51c0.06,20.57-0.54,41.16,0.19,61.72
			c1.18,33.19,25.81,47.75,55.41,32.55c8.55-4.39,14.83-6.24,22.81,1.31c5.79,5.48,14.56,2.13,22.03,2.51
			c1.74,0.11,3.31,0.69,4.7,1.73c-0.15,5,1.88,11.73-7.62,9.12c-1.41-0.39-3.03-0.05-4.55-0.05c-391.39,0-782.78-0.05-1174.17,0.29
			C2.05,390.21-0.04,388.18,0,377.84C0.47,255.51,0.42,133.19,0.04,10.86C0.02,1.85,1.86-0.06,10.95,0.03
			c55.26,0.53,110.52,0.26,165.78,0.26c-5.6,15.29-5.37,31.19-4.69,47.06c0.59,13.92,4.21,17.19,18.47,18.07
			c41.98,2.6,44.52-0.15,42.95-42.06c-0.31-8.22-5.39-14.98-5.02-23.07c319.4,0,638.8,0.06,958.2-0.29
			c10.42-0.01,12.63,2,12.48,12.37c-0.7,49.32-0.31,98.66-0.31,147.99c-5.09,0.69-5.9-3.4-6.57-6.58
			c-4.34-20.63-20.05-29.22-37.87-35.37c-13.43-4.64-27.69-6.16-41.37-9.92c-5.37-1.48-10.83-2.7-15.34-6.27
			c-10.39-8.2-9.85-18.74,1.35-25.85c13.49-8.55,36.81-4.56,47.03,8.06c7.62,9.41,26.08,13.15,36.1,7.48
			c4.88-2.76,3.74-6.66,2.21-10.46c-6.14-15.39-16.78-26.62-32.99-31.01c-21.87-5.92-44.19-6.3-66.07-0.12
			c-20.85,5.88-33.74,23.08-33.94,43.28c-0.2,19.97,10.06,33.46,31.34,41.6c14.76,5.65,30.49,7.46,45.58,11.81
			c16.19,4.67,25.14,13.29,24.04,23.22c-1.26,11.34-13.66,18.85-31.04,18.01c-14.16-0.68-26.8-4.39-34.46-18.16
			c-4.24-7.62-27.4-12.26-35.9-8.36c-4.58,2.1-3.39,5.72-2.81,9.02c2.65,15.04,11.72,26.01,24.89,32.46
			c31.36,15.36,63.45,15.33,95.24,0.9c10.55-4.79,17.36-13.48,21.96-24.09C1191.99,175.9,1191.54,169.39,1198.81,169.43z"/>
		<path d="M1198.81,169.43c-20.21,52.71-101.27,67.92-142.21,26.93c-10.76-10.77-13.83-23.74-14.21-39.56
			c12.18,0,24.31,0.37,36.39-0.15c6.45-0.28,8.37,2.87,10.62,8.06c7.9,18.24,35.45,26.26,52.61,15.79
			c10.21-6.23,10.02-16.97-0.73-24.16c-11.25-7.53-24.83-7.75-37.44-10.82c-9.75-2.37-19.38-4.73-28.55-8.92
			c-32.99-15.06-38.68-57.4-10.71-80.33c24.72-20.27,84.04-19.57,108.4,1.35c4.96,4.26,9.51,8.89,12.66,14.78
			c11.25,21.06,9.72,23.97-13.53,25.38c-4.54,0.28-9.09,0.76-13.59,1.44c-6.46,0.98-9.93,0.89-12.55-7.62
			c-4.76-15.46-33.68-22.09-47.04-12.22c-3.67,2.71-6.75,6.31-6.22,11.31c0.68,6.49,6.01,9.66,11.14,11.11
			c13.98,3.95,28.33,6.6,42.39,10.27c18.6,4.86,36.29,10.87,46.81,29.28c3.59,6.27-0.26,14.01,5.75,19.03
			C1198.81,163.39,1198.81,166.41,1198.81,169.43z"/>
		<path class="st1" d="M228.44,0.29c9.13,5.43,9.27,14.1,9.22,23.33c-0.24,49.72,4.96,46.08-46.58,45.91
			c-19.25-0.06-23.08-3.84-23.21-22.71c-0.06-8.53,0.45-17.1-0.12-25.6c-0.58-8.72,2.47-15.44,8.98-20.93
			C193.97,0.29,211.2,0.29,228.44,0.29z"/>
		<path class="st2" d="M1198.81,380.86c-0.91,0.07-1.82,0.11-2.74,0.09c-4.77-4.06-4.96-9.74-5.03-15.23
			c-0.37-29.13-0.35-58.27-0.01-87.4c0.06-5.5,0.26-11.16,4.9-15.31c0.96-0.01,1.92,0.01,2.89,0.05
			C1198.81,302.33,1198.81,341.59,1198.81,380.86z"/>
		<path d="M1049.91,45.59c-16.01,54.17-31.87,107.35-47.29,160.66c-1.9,6.57-4.6,8.55-11.33,8.1c-11.58-0.77-25.92,3.56-34.02-1.81
			c-6.8-4.51-6.42-19.77-9.13-30.29c-6.77-26.33-13.49-52.66-22.71-78.97c-8.23,32.58-17.01,65.04-24.37,97.81
			c-2.3,10.22-5.79,13.61-16.54,13.37c-32.25-0.72-32.32-0.2-41.17-30.74c-13.18-45.44-26.27-90.91-39.9-138.12
			c14.48,0,28.37,0.13,42.25-0.04c9.3-0.11,7.88,7.85,9.12,12.66c7.8,30.24,14.96,60.64,23.37,95.32
			c7.05-26.85,13.07-49.78,19.09-72.71c0.89-3.38,1.78-6.77,2.66-10.15c6.49-25.12,6.52-24.32,32.84-25.44
			c11.97-0.51,16.49,3.18,18.99,14.46c6.47,29.18,14.19,58.09,21.46,87.1c0.09,0.36,0.79,0.57,2.85,1.95
			c7.43-30.24,15-59.77,21.8-89.47c2.31-10.06,5.97-15.33,17.66-13.95C1026.51,46.6,1037.74,45.59,1049.91,45.59z"/>
		<path d="M812.18,167.03c-15.77,39.03-49.76,56.61-96.38,50.75c-36.6-4.6-62.62-31.09-68.14-69.35
			c-6.58-45.7,9.96-83.14,45.37-98.64c29.34-12.85,59.65-12.95,86.67,5.16c28.08,18.82,34.18,49.09,35.94,80.57
			c0.52,9.38-5.54,7.47-10.78,7.47c-32.39,0.03-64.79,0.47-97.17-0.22c-11.58-0.25-12.86,4.18-9.7,13.29
			c9.46,27.19,44.39,34.76,63.1,13.01c4.41-5.12,8.41-6.06,13.93-5.58C787.11,164.55,799.17,165.78,812.18,167.03z"/>
		<path d="M530.73,66.5c21.5-20.69,41.88-28.63,66.78-21.64c22.2,6.24,35.21,20.65,38.57,42.91c5.97,39.48,1.49,79.29,2.9,118.93
			c0.22,6.09-2.43,8.13-8.08,7.48c-0.5-0.06-1.01-0.03-1.52,0c-39.09,1.97-39.09,1.97-39.09-36.53c0-20.61,0.24-41.22-0.07-61.82
			c-0.32-20.93-9.26-32.97-24.45-33.95c-17.18-1.1-29.57,8.28-31.21,29.33c-2.3,29.47-1.88,59.22-1.13,88.82
			c0.31,12.33-3.73,14.68-15.13,14.42c-31.77-0.74-31.77-0.24-31.77-32.23c0-41.72,0.28-83.44-0.23-125.16
			c-0.11-9.1,1.91-12.9,11.57-11.62c5.97,0.79,12.2,0.73,18.19,0.03C529.2,43.92,536.87,47.05,530.73,66.5z"/>
		<path class="st3" d="M776.49,274.85c24.35-20.81,44.74-20.84,63.87-1.25c4.55,4.66,6.59,2.31,9.5-0.82
			c10.08-10.86,22.76-13.86,37.17-12.95c20.82,1.31,34.63,14.86,34.89,35.87c0.31,25.14-0.65,50.31,0.36,75.42
			c0.61,15.22-9.09,12.21-17.83,12.53c-9.1,0.33-16.92,0.81-16.18-12.68c1.04-19.05,0.43-38.2,0.18-57.31
			c-0.21-15.86-6.53-23.46-18.96-23.66c-13.08-0.21-19.5,6.13-20.16,22.55c-0.76,19.08-1.14,38.27,0.13,57.3
			c1.04,15.6-8.52,13.42-18.23,13.96c-11,0.61-16.83-1.55-15.98-14.61c1.18-18.03,0.39-36.19,0.25-54.29
			c-0.13-17.37-5.96-24.81-19.14-24.87c-13.37-0.06-19.73,6.98-20.22,24.28c-0.53,19.09-0.86,38.25,0.1,57.31
			c0.72,14.22-8.38,12.12-16.82,11.98c-8.14-0.14-17.48,2.83-17.12-11.67c0.79-32.16,0.11-64.36,0.36-96.54
			c0.05-6.25-3.2-16.34,8.7-14.75C760.81,261.92,776.98,251.5,776.49,274.85z"/>
		<path class="st3" d="M1083.24,335.25c0,11.07,0.64,22.2-0.3,33.19c-0.42,4.91,6.61,12.71-1.1,14.18
			c-9.28,1.77-22.13,5.8-28.42-2.83c-5.88-8.06-8.87-4.43-13.86-1.65c-14.23,7.91-28.92,11.3-44.97,5.46
			c-17.18-6.25-27.23-20.04-26.86-37.71c0.32-15.64,9.34-26.46,26.44-32.86c13.41-5.02,27.7-4.84,41.42-7.85
			c5.81-1.28,13.28-2.31,12.71-10.15c-0.48-6.66-6.2-10.39-12.9-10.62c-10.93-0.37-21.39-1.81-29.04,10.61
			c-5.64,9.15-18.61,6.04-26.27,2.81c-7.95-3.35-2.34-12.36,0.63-18.42c7.58-15.5,22.52-19.85,37.68-21.38
			c37.12-3.74,67.27,7.79,64.92,51.57C1082.85,318.12,1083.25,326.7,1083.24,335.25z"/>
		<path class="st3" d="M736.47,322.65c-0.07,36.92-28.05,65.54-65.32,63.88c-37.43-1.66-61.43-23.35-61.23-65.68
			c0.16-35.07,19.5-61.74,65.59-63.54C712.12,255.89,736.54,283.22,736.47,322.65z"/>
		<path class="st3" d="M1195.92,263.01c0.05,39.31,0.1,78.63,0.15,117.94c-11.03,1.31-23.44,11.2-31.39-5.8
			c-2.6-5.56-5.88-0.66-8.18,1.26c-9,7.53-19.8,10.61-30.93,9.53c-23.42-2.26-35.78-16.32-36.18-40.22
			c-0.4-24.61,0.47-49.25-0.38-73.84c-0.5-14.57,9.09-11.41,17.17-11.52c8.38-0.12,17.44-2.23,16.79,11.99
			c-0.97,21.06-0.35,42.19-0.18,63.29c0.08,10.55,1.33,20.43,15.43,21.38c14.62,0.99,21.15-4.11,24.24-18.52
			c3.95-18.4,2.4-36.98,2.54-55.5C1165.18,258.17,1170.05,254.91,1195.92,263.01z"/>
		<path class="st3" d="M603.08,339.27c-5.36,35.91-28.63,47.07-58.14,47.28c-30.75,0.22-55.51-23.17-57.86-52.56
			c-1.91-23.81,0.88-46.04,20.79-63.06c28.5-24.36,78.18-15.21,92.09,17.04c4.43,10.27,2.99,14.88-9.28,14.61
			c-10.53-0.24-19.24,0.41-26.95-10.66c-8.86-12.71-30.99-7.88-37.85,6.56c-7.34,15.45-6.8,31.27,0.75,46.37
			c7.02,14.05,28.49,18.61,36.67,6.27C574.31,334.47,588.39,338.54,603.08,339.27z"/>
		<path class="st4" d="M203.18,386.9c-35.26,0-35.26,0-35.27-35.15c0-5.03,0.03-10.07-0.01-15.1c-0.09-12.24,5.75-18.82,18.32-18.89
			c11.15-0.06,22.3-0.1,33.45,0c12.4,0.11,18.45,6.17,17.96,18.76c-0.35,9.04-0.04,18.11-0.07,27.17
			c-0.08,20.4-2.93,23.18-23.74,23.21C210.27,386.9,206.72,386.9,203.18,386.9z"/>
		<path class="st5" d="M87.16,126.72c-3.33-0.8-7.41-4.46-11.31-8.4c-40.47-40.94-38.59-29.02-0.74-67.37
			c12.85-13.02,16.43-12.82,29.63,0.19c7.89,7.78,15.73,15.6,23.58,23.42c5.38,5.37,6.82,11.76,1.54,17.39
			c-10.32,11-21.33,21.37-32.23,31.81C95.52,125.76,92.91,127.68,87.16,126.72z"/>
		<path class="st6" d="M131.47,307.01c0.64,9.33-4.92,12.77-9.11,16.94c-37.12,36.91-29.71,35.13-65.5,0.04
			c-15.11-14.82-14.99-16.33,0.02-31.34c7.49-7.49,15.06-14.89,22.55-22.37c5.49-5.48,11.85-6.41,17.47-1.28
			c11.17,10.18,21.83,20.92,32.35,31.77C131.11,302.69,131.22,306.27,131.47,307.01z"/>
		<path class="st7" d="M38.44,236.14c-34.51,0.01-34.51,0.01-34.51-34.3c0-32.69,0-32.72,33.41-32.67
			c35.22,0.05,36.82-4.9,36.13,35.99c-0.04,2.51,0,5.02-0.01,7.53c-0.06,21.79-1.64,23.41-22.89,23.45
			C46.53,236.14,42.49,236.13,38.44,236.14z"/>
		<path class="st8" d="M366.43,236.06c-29.83-0.32-35.16,7.14-34.2-33.57c0.08-3.52,0-7.05,0.03-10.57
			c0.16-20.23,2.52-22.62,22.6-22.68c10.64-0.03,21.29,0.14,31.93,0.03c10.19-0.11,14.81,5.23,14.96,14.84
			c0.17,10.57,0.12,21.14,0.04,31.7c-0.12,17.68-2.56,20.1-20.16,20.24C376.57,236.09,371.5,236.06,366.43,236.06z"/>
		<path class="st9" d="M358.61,80.66c1.54,7.7-1.04,10.67-4,13.57c-9.34,9.16-18.71,18.28-27.86,27.62
			c-7.25,7.4-13.95,6.48-20.82-0.41c-8.87-8.91-17.73-17.84-26.83-26.52c-7.79-7.42-7.51-14.85-0.35-22.13
			c8.8-8.96,17.97-17.57,26.98-26.34c5.36-5.22,12.28-7.06,17.71-2.21c11.98,10.71,22.95,22.52,34.17,34.04
			C358.85,79.55,359.05,81.83,358.61,80.66z"/>
		<path class="st10" d="M359.74,306.61c0.57,6.81-1.4,10.64-4.86,13.99c-8.7,8.41-17.13,17.11-26.02,25.32
			c-7.38,6.81-14.95,7.44-22.53-0.38c-9.12-9.41-18.54-18.56-27.97-27.67c-6.34-6.13-6.22-12.3-0.31-18.33
			c9.89-10.07,19.96-19.98,30.1-29.81c4.94-4.8,10.82-6.09,16.14-1.07c11.36,10.73,22.39,21.81,33.33,32.97
			C359.22,303.25,359.54,306.09,359.74,306.61z"/>
		<path class="st11" d="M483.53,365.92c3.01,13.21-1.13,18.17-15.97,18.42c-15.89,0.26-17.44-6.13-17.69-19.28
			c-0.26-13.82,4-17.41,17.75-17.68C482.78,347.08,486.39,352.85,483.53,365.92z"/>
		<path class="st11" d="M961.59,367.91c2.66,11.52-1.95,16.06-16.55,16.41c-16.18,0.39-17.08-6.54-17.46-19.4
			c-0.41-13.99,4.04-18.25,17.79-17.25C961.55,348.83,961.62,347.98,961.59,367.91z"/>
		<path class="st12" d="M730.19,108.81c-6.57,0-13.15,0.26-19.7-0.09c-4.32-0.23-10.29,2.44-12.62-1.64
			c-3.05-5.34,1.81-10.2,4.7-14.76c8.49-13.4,21.71-14.93,35.83-13.73c11.71,1,19.25,8.13,24.07,18.04
			c3.74,7.69,3.41,13.38-8.04,12.32C746.41,108.21,738.28,108.81,730.19,108.81z"/>
		<path class="st13" d="M1020.6,359.73c-7.6,0.5-14.77-1.48-16.47-10.73c-1.79-9.69,3.66-14.98,12.73-17.14
			c5.82-1.38,11.61-3.04,17.52-3.88c4.88-0.69,11.35-6.78,14.41-0.24c2.8,5.96,2.65,14.16-2.53,19.93
			C1039.75,354.94,1031.79,360.11,1020.6,359.73z"/>
		<path class="st0" d="M702.92,319.42c-0.03,30.96-21.84,47.64-43.28,35.59c-14.07-7.91-19.63-35.99-10.74-54.29
			c7.45-15.35,20.14-20.06,36.22-13.88C701.86,293.26,699.73,308.85,702.92,319.42z"/>
	</g>
</g>
</svg>
